Coordinates
nRows=14
nColumns=24

# SIMM Motion File Header:
name Coordinates
datacolumns 24
datarows 14
otherdata 1
range 0.79832999999999998000 0.81133000000000000000

Units are S.I. units (second, meters, Newtons, ...)
Angles are in degrees.

endheader
time	pelvis_tx	pelvis_ty	pelvis_tz	pelvis_tilt	pelvis_list	pelvis_rotation	hip_flexion_r	hip_adduction_r	hip_rotation_r	knee_angle_r	ankle_angle_r	subtalar_angle_r	mtp_angle_r	hip_flexion_l	hip_adduction_l	hip_rotation_l	knee_angle_l	ankle_angle_l	subtalar_angle_l	mtp_angle_l	lumbar_extension	lumbar_bending	lumbar_rotation
      0.79832999999999998000	      2.10646731049303960000	      0.75173265373771636000	     -0.21457535905127464000	     -5.97503759789132620000	     -2.10494574640076860000	      1.73819031609045350000	     25.10740513043895900000	     -0.13855854806848183000	      0.29632974115548394000	    -51.48992028688498800000	     -1.20591274102318980000	     -0.00000000000022516465	     -0.00000000000054662404	      6.56155133663642240000	      2.86444947467739520000	     -5.99206719423192440000	     -6.98820561331852640000	      3.69427034022991880000	     -0.00000000000004240725	     -0.00000000000007352358	     -1.52559686548646800000	      2.29994369365307040000	      0.43836170593188095000
      0.79932999999999998000	      2.10759640703527570000	      0.75177616375349032000	     -0.21465684263116136000	     -5.97381257475631420000	     -2.13164192441945220000	      1.75393848612880900000	     25.23381182665550100000	     -0.09842276997830375100	      0.43046288291938967000	    -51.24033771895075500000	     -1.11673637834795140000	     -0.00000000000022550013	     -0.00000000000054764486	      6.39991868777398930000	      2.84318370303692090000	     -5.99729076820338490000	     -6.85935739062765300000	      3.69730825814505070000	     -0.00000000000004262335	     -0.00000000000007352358	     -1.54073675977959290000	      2.35235169665991070000	      0.40034543407927770000
      0.80032999999999999000	      2.10872541981755870000	      0.75181542431741144000	     -0.21473740015560941000	     -5.97255638804873360000	     -2.15787980943848810000	      1.77031494905328040000	     25.35891040448807100000	     -0.05921911511069745400	      0.56293533187097355000	    -50.98789360790729600000	     -1.02838959149755380000	     -0.00000000000022583162	     -0.00000000000054866649	      6.23844496320675200000	      2.82248232481838410000	     -6.00185261471890640000	     -6.73105595073545440000	      3.70038615451393670000	     -0.00000000000004285630	     -0.00000000000007348785	     -1.55585394933711240000	      2.40367725126554710000	      0.36227925463665100000
      0.80132999999999999000	      2.10985438405552150000	      0.75185041923902485000	     -0.21481700485774854000	     -5.97126473007970660000	     -2.18366940940182100000	      1.78730977234255040000	     25.48270428409105600000	     -0.02095098408244779400	      0.69365263197415705000	    -50.73262962266184000000	     -0.94087692824536606000	     -0.00000000000022616347	     -0.00000000000054968523	      6.07712504270741500000	      2.80233159837593910000	     -6.00576788150369280000	     -6.60330824794204490000	      3.70352101200050490000	     -0.00000000000004311883	     -0.00000000000007338777	     -1.57094085395385760000	      2.45392395746461920000	      0.32418131195068456000
      0.80232999999999999000	      2.11098333567946830000	      0.75188113258809020000	     -0.21489563024797367000	     -5.96993344151247470000	     -2.20902098335611190000	      1.80491250793543690000	     25.60519751138337700000	      0.01637921335245413900	      0.82252053501553191000	    -50.47458813001020400000	     -0.85420233680566293000	     -0.00000000000022649535	     -0.00000000000055070171	      5.91595396174518660000	      2.78271732774376850000	     -6.00905199807642190000	     -6.47612100326272260000	      3.70672991782037720000	     -0.00000000000004338713	     -0.00000000000007325867	     -1.58598961008966870000	      2.50309601202431060000	      0.28607017107306787000
      0.80332999999999999000	      2.11211231126814210000	      0.75190754870461751000	     -0.21497325016121008000	     -5.96855852418306920000	     -2.23394500964276870000	      1.82311223170083900000	     25.72639476068196600000	      0.05277002672931267000	      0.94944506087473923000	    -50.21381216707968800000	     -0.76836915893704638000	     -0.00000000000022682670	     -0.00000000000055171667	      5.75492693109972820000	      2.76362490534513050000	     -6.01172062997511780000	     -6.34950073136743050000	      3.71003007492786500000	     -0.00000000000004366385	     -0.00000000000007305400	     -1.60099208512242490000	      2.55119817938091710000	      0.24796474329038340000
      0.80432999999999999000	      2.11324134797524590000	      0.75192965221144015000	     -0.21504983880021586000	     -5.96713615314149330000	     -2.25845215450443740000	      1.84189758251352220000	     25.84630133545958900000	      0.08822093356385556100	      1.07433255993625450000	    -49.95034541258473100000	     -0.68338012483668753000	     -0.00000000000022715606	     -0.00000000000055273143	      5.59403935294692720000	      2.74503935369825220000	     -6.01378962609534630000	     -6.22345375297594130000	      3.71343879964228880000	     -0.00000000000004391540	     -0.00000000000007288483	     -1.61593989273646230000	      2.59823576292714530000	      0.20988421082946784000
      0.80532999999999999000	      2.11437048345453380000	      0.75194742802692938000	     -0.21512537077742885000	     -5.96566268856167790000	     -2.28255324096645440000	      1.86125680115046420000	     25.96492316888098600000	      0.12273230843440305000	      1.19708977565236910000	    -49.68423215803008500000	     -0.59923734805405049000	     -0.00000000000022748420	     -0.00000000000055374606	      5.43328683617844100000	      2.72694536667788160000	     -6.01527496399020390000	     -6.09798620336271300000	      3.71697351942910890000	     -0.00000000000004418147	     -0.00000000000007273873	     -1.63082440847836830000	      2.64421457658179810000	      0.17184795174491480000
      0.80632999999999999000	      2.11549975578380560000	      0.75196086137772844000	     -0.21519982115586675000	     -5.96413468765272550000	     -2.30625921772282800000	      1.88117776918218490000	     26.08226682431674300000	      0.15630539205744540000	      1.31762390710720110000	    -49.41551727892370100000	     -0.51594232040202104000	     -0.00000000000022781325	     -0.00000000000055476017	      5.27266521168364480000	      2.70932735078398010000	     -6.01619269515617020000	     -5.97310404084134830000	      3.72065177068115550000	     -0.00000000000004442366	     -0.00000000000007266171	     -1.64563678533344990000	      2.68914091635749970000	      0.13387546480927720000
      0.80732999999999999000	      2.11662920338786400000	      0.75196993781150656000	     -0.21527316548906222000	     -5.96254891657230070000	     -2.32958112802348260000	      1.90164804786047030000	     26.19833949583604100000	      0.18894226035173411000	      1.43584267158023460000	    -49.14424620599949400000	     -0.43349590686581657000	     -0.00000000000022814298	     -0.00000000000055577499	      5.11217054759915700000	      2.69216946642339840000	     -6.01655889031925730000	     -5.84881305525781500000	      3.72449119649835800000	     -0.00000000000004465135	     -0.00000000000007260078	     -1.66036796932211780000	      2.73302153192277460000	      0.09598629440374807600
      0.80832999999999999000	      2.11775886496053280000	      0.75197464320976792000	     -0.21534537986004115000	     -5.96090236232044820000	     -2.35253007855624170000	      1.92265491698374240000	     26.31314900862640000000	      0.22064579345689395000	      1.55165436722332340000	    -48.87046489639698200000	     -0.35189834062579223000	     -0.00000000000022847336	     -0.00000000000055679286	      4.95179916449308610000	      2.67545566920299830000	     -6.01638958478895170000	     -5.72511887647984350000	      3.72850954422814020000	     -0.00000000000004484560	     -0.00000000000007260059	     -1.67500871513245330000	      2.77586359814809390000	      0.05819995551146098900
      0.80932999999999999000	      2.11888877938629070000	      0.75197496380151674000	     -0.21541644092034223000	     -5.95919224395062400000	     -2.37511720839511130000	      1.94418541304300410000	     26.42670381779747800000	      0.25141964406058132000	      1.66496793911645850000	    -48.59421980331911300000	     -0.27114922144930109000	     -0.00000000000022880406	     -0.00000000000055781229	      4.79154764871923610000	      2.65916975134042400000	     -6.01570072364783480000	     -5.60202697696858820000	      3.73272465915989220000	     -0.00000000000004501154	     -0.00000000000007258559	     -1.68954960230902530000	      2.81767468670200390000	      0.02053586191618197000
      0.81032999999999999000	      2.12001898565943580000	      0.75197088618179786000	     -0.21548632593334174000	     -5.95741602122505580000	     -2.39735365763643980000	      1.96622636513531980000	     26.53901300039397200000	      0.28126820182086837000	      1.77569305971654150000	    -48.31555783897655200000	     -0.19124752894828051000	     -0.00000000000022913555	     -0.00000000000055883379	      4.63141286096050030000	      2.64329538293668210000	     -6.01450811110087980000	     -5.47954267073273280000	      3.73715447729424930000	     -0.00000000000004513446	     -0.00000000000007265687	     -1.70398105352440780000	      2.85846273709319390000	     -0.01698673247826386000
      0.81133000000000000000	      2.12114952279171920000	      0.75196239733791004000	     -0.21555501282305564000	     -5.95557140090306270000	     -2.41925053514878250000	      1.98876442914893350000	     26.65008624012579800000	      0.31019655311056776000	      1.88374022396656300000	    -48.03452633069318300000	     -0.11219165123698283000	     -0.00000000000022946668	     -0.00000000000055985361	      4.47139194155905970000	      2.62781615256559450000	     -6.01282736877974950000	     -5.35767112455356640000	      3.74181701932980860000	     -0.00000000000004525045	     -0.00000000000007277522	     -1.71829335512960730000	      2.89823602643861690000	     -0.05434877936788307800
